<?xml version="1.0" encoding="utf-8"?>
<!-- Generator: Adobe Illustrator 21.0.2, SVG Export Plug-In . SVG Version: 6.00 Build 0)  -->
<svg version="1.1" id="Layer_1" xmlns="http://www.w3.org/2000/svg" xmlns:xlink="http://www.w3.org/1999/xlink" x="0px" y="0px"
	 viewBox="0 0 1000 548.4" style="enable-background:new 0 0 1000 548.4;" xml:space="preserve">
<style type="text/css">
	.st0{fill:#FFFFFF;}
</style>
<g id="XMLID_1_">
	<path id="XMLID_2_" class="st0" d="M224.1,4.2v59.3h-82.2v237.7H82.6V63.6H0V4.2H224.1z"/>
	<path id="XMLID_4_" class="st0" d="M356.8,4.2l140.3,297h-65.7l-84.7-180.5l-91.9,180.5h-66.5l151.3-297H356.8z"/>
	<path id="XMLID_6_" class="st0" d="M612.7,175.4c-9.7-2.5-28-7.2-44.9-18.6c-23.7-15.7-36.9-38.6-38.1-66.9
		c-1.3-23.7,6.4-44.5,21.6-60.6C573.3,6.4,605.1,0,620.3,0c43.2,0,67.4,15.7,89,29.7l9.7,6.4l-30.9,50.4l-10.6-6.8
		c-19.1-12.3-31.4-20.3-57.2-20.3c-3.8,0-18.6,3-26.3,11c-2.5,2.5-5.5,7.2-5.1,16.9c0.4,15.3,11,23.7,38.1,30.5
		c3.4,0.8,5.9,1.7,8.5,2.5c28.4,9.7,50.4,22.9,65.7,39.4c15.3,16.9,23.3,36.9,23.3,58c0,20.8-8.9,42.4-23.7,58.9
		c-17.4,19.5-41.5,30.5-68.2,30.5c-13.1,0-30.9-0.8-52.1-7.2c-26.7-8.5-50.4-23.3-70.8-44.9l43.2-40.7
		c31.4,33.5,66.5,33.5,79.7,33.5c24.6,0,32.6-22.5,32.6-30.1c0-16.1-18.2-30.9-49.2-41.5l-1.3-0.4L612.7,175.4z"/>
	<path id="XMLID_8_" class="st0" d="M853.4,165.3l-22.9,23.3v112.3h-59.3V4.2h59.3V100l86.9-95.8h80.1L893.6,120.3L1000,300.8h-70.8
		L853.4,165.3z"/>
	<path id="XMLID_10_" class="st0" d="M81.6,548.4h-6.9V390.9H20.3v-6.4h115.5v6.4H81.6V548.4z"/>
	<path id="XMLID_12_" class="st0" d="M257.8,548.4H251V384.5h6.9V548.4z"/>
	<path id="XMLID_14_" class="st0" d="M396,548.4h-6.4V384.5h7l63.8,143h0.5l64-143h6.9v163.9h-6.4V399.8h-0.5l-60.8,136h-6.8
		l-60.8-136H396V548.4z"/>
	<path id="XMLID_16_" class="st0" d="M753.5,542v6.4h-92.3V384.5h92.3v6.4H668v70.2h81.3v6.4H668V542H753.5z"/>
	<path id="XMLID_18_" class="st0" d="M927,384.5c14.9,0,26.8,4.1,35.6,12.3c8.9,8.2,13.3,19.2,13.3,32.9c0,12.1-3.3,21.8-9.8,29.3
		c-6.6,7.4-15.3,12.3-26.4,14.7l38.9,74.7h-8l-38.4-73.4h-50.7v73.4h-6.9V384.5H927z M881.5,468.9h44.4c13,0,23.5-3.5,31.3-10.6
		c7.8-7,11.7-16.6,11.7-28.5c0-12.1-3.9-21.6-11.6-28.6c-7.7-7-18.2-10.5-31.4-10.5h-44.4V468.9z"/>
</g>
</svg>
