<?xml version="1.0" encoding="UTF-8" standalone="no"?>
<!-- Created with Inkscape (http://www.inkscape.org/) -->

<svg
   xmlns:dc="http://purl.org/dc/elements/1.1/"
   xmlns:cc="http://creativecommons.org/ns#"
   xmlns:rdf="http://www.w3.org/1999/02/22-rdf-syntax-ns#"
   xmlns:svg="http://www.w3.org/2000/svg"
   xmlns="http://www.w3.org/2000/svg"
   xmlns:sodipodi="http://sodipodi.sourceforge.net/DTD/sodipodi-0.dtd"
   xmlns:inkscape="http://www.inkscape.org/namespaces/inkscape"
   width="35.151855mm"
   height="35.151859mm"
   viewBox="0 0 35.151855 35.151859"
   version="1.1"
   id="svg32"
   inkscape:version="0.92.1 r15371"
   sodipodi:docname="fbnew.svg">
  <defs
     id="defs26" />
  <sodipodi:namedview
     id="base"
     pagecolor="#ffffff"
     bordercolor="#666666"
     borderopacity="1.0"
     inkscape:pageopacity="0.0"
     inkscape:pageshadow="2"
     inkscape:zoom="2.8"
     inkscape:cx="137.38831"
     inkscape:cy="1.5215098"
     inkscape:document-units="mm"
     inkscape:current-layer="layer1"
     showgrid="false"
     inkscape:window-width="1920"
     inkscape:window-height="1017"
     inkscape:window-x="-8"
     inkscape:window-y="-8"
     inkscape:window-maximized="1" />
  <metadata
     id="metadata29">
    <rdf:RDF>
      <cc:Work
         rdf:about="">
        <dc:format>image/svg+xml</dc:format>
        <dc:type
           rdf:resource="http://purl.org/dc/dcmitype/StillImage" />
        <dc:title></dc:title>
      </cc:Work>
    </rdf:RDF>
  </metadata>
  <g
     inkscape:label="Layer 1"
     inkscape:groupmode="layer"
     id="layer1"
     transform="translate(-0.377752,-0.09988421)">
    <path
       style="fill:#ffffff;stroke-width:0.45567128"
       d="M 17.95394,0.09988421 A 17.575893,17.575893 0 0 0 0.377752,17.675554 17.575893,17.575893 0 0 0 17.95394,35.251742 17.575893,17.575893 0 0 0 35.529609,17.675554 17.575893,17.575893 0 0 0 17.95394,0.09988421 Z m 0.888839,9.57822599 2.37298,0.0093 v 2.6437668 h -1.72341 c -0.28072,0 -0.67903,0.140218 -0.67903,0.741558 v 1.600935 h 2.44171 l -0.27957,2.724381 h -2.16214 v 7.708058 H 15.60938 V 17.398051 H 14.08596 V 14.67367 h 1.52342 v -1.762167 c 0,-1.261755 0.599395,-3.2333928 3.233399,-3.2333928 z"
       id="path43"
       inkscape:connector-curvature="0" />
  </g>
</svg>
