<?xml version="1.0" ?><!DOCTYPE svg  PUBLIC '-//W3C//DTD SVG 1.1//EN'  'http://www.w3.org/Graphics/SVG/1.1/DTD/svg11.dtd'><svg enable-background="new 0 0 64 64" height="64px" id="Layer_1" version="1.1" viewBox="0 0 64 64" width="64px" xml:space="preserve" xmlns="http://www.w3.org/2000/svg" xmlns:xlink="http://www.w3.org/1999/xlink"><path d="M59.016,12.971h-13.23c-1.717,0-1.693-1.98-1.693-1.98V4.272c0-1.759-1.426-3.185-3.184-3.185H23.092  c-1.759,0-3.185,1.426-3.185,3.185v7.091c-0.083,0.667-0.478,1.607-2.09,1.607H4.623c-3.708,0-4.399,2.452-4.505,3.775v26.006  c0,1.721,1.239,3.143,2.871,3.438v13.539c0,1.76,1.426,3.184,3.185,3.184h51.655c1.758,0,3.186-1.424,3.186-3.184V46.189  c1.629-0.295,2.869-1.717,2.869-3.438V17.647C63.883,13.185,59.689,12.976,59.016,12.971z M23.159,6.352  c0-1.286,1.042-2.329,2.328-2.329h13.026c1.285,0,2.326,1.042,2.326,2.329v4.73c-0.006,0.42-0.137,1.888-1.674,1.888H25.033  c-1.546,0-1.832-0.937-1.874-1.46V6.352z M57.496,56.988c0,1.514-1.254,2.74-2.799,2.74H9.304c-1.546,0-2.799-1.227-2.799-2.74  V46.254h50.992V56.988z" fill="#241F20"/></svg>